<!DOCTYPE svg PUBLIC "-//W3C//DTD SVG 1.1//EN" "http://www.w3.org/Graphics/SVG/1.1/DTD/svg11.dtd">
<!-- Uploaded to: SVG Repo, www.svgrepo.com, Transformed by: SVG Repo Mixer Tools -->
<svg width="800px" height="800px" viewBox="-5.76 -5.76 83.52 83.52" id="emoji" xmlns="http://www.w3.org/2000/svg" fill="#ffffff">
<g id="SVGRepo_bgCarrier" stroke-width="0"/>
<g id="SVGRepo_tracerCarrier" stroke-linecap="round" stroke-linejoin="round" stroke="#CCCCCC" stroke-width="5.76"> <g id="color"> <polyline fill="#fcea2b" stroke-linecap="round" stroke-linejoin="round" stroke-miterlimit="10" stroke-width="2.232" points="36,10.9792 11,10.9792 11,16.0207 31.5,34.25 31.5,56.021 40.5,60.9792 40.5,34.25 61,16.0208 61,10.9792 36,10.9792"/> <polygon fill="#F1B31C" points="36,57.1932 36,57.1932 39.2683,58.875 39.2683,33.9081 59.7683,15.5833 59.7683,12.1715 49.5183,12.1715 49.5183,16.0254 36.0183,32.8581"/> <path fill="#fcea2b" stroke-linecap="round" stroke-linejoin="round" stroke-miterlimit="10" stroke-width="2.232" d="M68.0011,43.9411"/> </g> <g id="hair"/> <g id="skin"/> <g id="skin-shadow"/> <g id="line"> <polyline fill="none" stroke="#000000" stroke-linecap="round" stroke-linejoin="round" stroke-miterlimit="10" stroke-width="2.232" points="36,10.9792 11,10.9792 11,16.0207 31.5,34.25 31.5,56.021 40.5,60.9792 40.5,34.25 61,16.0208 61,10.9792 36,10.9792"/> <path fill="none" stroke="#000000" stroke-linecap="round" stroke-linejoin="round" stroke-miterlimit="10" stroke-width="2.232" d="M68.0011,43.9411"/> </g> </g>
<g id="SVGRepo_iconCarrier"> <g id="color"> <polyline fill="#fcea2b" stroke-linecap="round" stroke-linejoin="round" stroke-miterlimit="10" stroke-width="2.232" points="36,10.9792 11,10.9792 11,16.0207 31.5,34.25 31.5,56.021 40.5,60.9792 40.5,34.25 61,16.0208 61,10.9792 36,10.9792"/> <polygon fill="#F1B31C" points="36,57.1932 36,57.1932 39.2683,58.875 39.2683,33.9081 59.7683,15.5833 59.7683,12.1715 49.5183,12.1715 49.5183,16.0254 36.0183,32.8581"/> <path fill="#fcea2b" stroke-linecap="round" stroke-linejoin="round" stroke-miterlimit="10" stroke-width="2.232" d="M68.0011,43.9411"/> </g> <g id="hair"/> <g id="skin"/> <g id="skin-shadow"/> <g id="line"> <polyline fill="none" stroke="#000000" stroke-linecap="round" stroke-linejoin="round" stroke-miterlimit="10" stroke-width="2.232" points="36,10.9792 11,10.9792 11,16.0207 31.5,34.25 31.5,56.021 40.5,60.9792 40.5,34.25 61,16.0208 61,10.9792 36,10.9792"/> <path fill="none" stroke="#000000" stroke-linecap="round" stroke-linejoin="round" stroke-miterlimit="10" stroke-width="2.232" d="M68.0011,43.9411"/> </g> </g>
</svg>