<!DOCTYPE svg PUBLIC "-//W3C//DTD SVG 1.1//EN" "http://www.w3.org/Graphics/SVG/1.1/DTD/svg11.dtd">
<!-- Uploaded to: SVG Repo, www.svgrepo.com, Transformed by: SVG Repo Mixer Tools -->
<svg version="1.1" id="Layer_1" xmlns="http://www.w3.org/2000/svg" xmlns:xlink="http://www.w3.org/1999/xlink" viewBox="-71.68 -71.68 655.36 655.36" xml:space="preserve" width="800px" height="800px" fill="#000000" stroke="#000000" stroke-width="4.096007999999999" transform="matrix(1, 0, 0, 1, 0, 0)">
<g id="SVGRepo_bgCarrier" stroke-width="0"/>
<g id="SVGRepo_tracerCarrier" stroke-linecap="round" stroke-linejoin="round" stroke="#CCCCCC" stroke-width="8.192015999999999"> <path style="fill:#004cff;" d="M238.55,133.611L82.258,289.901l-8.225,8.227l-24.679,24.677 c31.802,31.8,31.802,83.362,0.001,115.161L0,487.322l98.711,0.001c31.802-31.804,83.363-31.804,115.162,0l24.677-24.68l8.226-8.225 l156.292-156.291L238.55,133.611z"/> <path style="fill:#004cff;" d="M320.809,215.868L49.356,487.322l49.355,0.001c31.802-31.804,83.363-31.804,115.162,0l24.677-24.68 l8.226-8.225l156.292-156.291L320.809,215.868z"/> <path style="fill:#88888F;" d="M394.843,306.353l106.936-106.936c13.629-13.628,13.628-35.727,0-49.355L386.616,34.899 c-13.629-13.628-35.727-13.628-49.356,0L230.323,141.835"/> <g> <path style="fill:#797781;" d="M501.778,199.417c13.629-13.628,13.628-35.727,0-49.355L444.197,92.48L312.584,224.094 l82.259,82.259L501.778,199.417z"/> <rect x="368.159" y="75.439" transform="matrix(-0.7071 -0.7071 0.7071 -0.7071 593.5906 513.0825)" style="fill:#797781;" width="69.798" height="116.33"/> </g> <rect x="397.941" y="87.786" transform="matrix(-0.7071 -0.7071 0.7071 -0.7071 605.9136 542.8799)" style="fill:#58575D;" width="34.899" height="116.33"/> <path style="fill:#88888F;" d="M213.873,487.323l32.903-32.904L82.258,289.901l-32.903,32.904 c26.084,26.082,30.757,65.449,14.054,96.312l54.151,54.151C148.423,456.566,187.791,461.237,213.873,487.323z"/> <path style="fill:#797781;" d="M164.517,372.16l-74.033,74.034l27.075,27.074c30.863-16.702,70.232-12.031,96.313,14.055 l32.903-32.904L164.517,372.16z"/> </g>
<g id="SVGRepo_iconCarrier"> <path style="fill:#004cff;" d="M238.55,133.611L82.258,289.901l-8.225,8.227l-24.679,24.677 c31.802,31.8,31.802,83.362,0.001,115.161L0,487.322l98.711,0.001c31.802-31.804,83.363-31.804,115.162,0l24.677-24.68l8.226-8.225 l156.292-156.291L238.55,133.611z"/> <path style="fill:#004cff;" d="M320.809,215.868L49.356,487.322l49.355,0.001c31.802-31.804,83.363-31.804,115.162,0l24.677-24.68 l8.226-8.225l156.292-156.291L320.809,215.868z"/> <path style="fill:#88888F;" d="M394.843,306.353l106.936-106.936c13.629-13.628,13.628-35.727,0-49.355L386.616,34.899 c-13.629-13.628-35.727-13.628-49.356,0L230.323,141.835"/> <g> <path style="fill:#797781;" d="M501.778,199.417c13.629-13.628,13.628-35.727,0-49.355L444.197,92.48L312.584,224.094 l82.259,82.259L501.778,199.417z"/> <rect x="368.159" y="75.439" transform="matrix(-0.7071 -0.7071 0.7071 -0.7071 593.5906 513.0825)" style="fill:#797781;" width="69.798" height="116.33"/> </g> <rect x="397.941" y="87.786" transform="matrix(-0.7071 -0.7071 0.7071 -0.7071 605.9136 542.8799)" style="fill:#58575D;" width="34.899" height="116.33"/> <path style="fill:#88888F;" d="M213.873,487.323l32.903-32.904L82.258,289.901l-32.903,32.904 c26.084,26.082,30.757,65.449,14.054,96.312l54.151,54.151C148.423,456.566,187.791,461.237,213.873,487.323z"/> <path style="fill:#797781;" d="M164.517,372.16l-74.033,74.034l27.075,27.074c30.863-16.702,70.232-12.031,96.313,14.055 l32.903-32.904L164.517,372.16z"/> </g>
</svg>